<svg id="Layer_1" data-name="Layer 1" xmlns="http://www.w3.org/2000/svg" viewBox="0 0 132.83 28.69"><defs><style>.cls-1{fill:#fe53bb;}.cls-2{fill:#08f7fe;}</style></defs><title>crumpspace-long-color-on-dark copy</title><path class="cls-1" d="M8.42,6.31a2.73,2.73,0,0,1,1.49-.43,3.29,3.29,0,0,1,1.71.54,5.21,5.21,0,0,1,1.5,1.39l2.69-3.2a8,8,0,0,0-2.71-1.9,8.26,8.26,0,0,0-7.18.23A7,7,0,0,0,3.19,5.55a7.19,7.19,0,0,0-1,3.75,7.66,7.66,0,0,0,1,3.82,6.87,6.87,0,0,0,2.67,2.65,7.64,7.64,0,0,0,3.83,1A7.79,7.79,0,0,0,13,16a8.77,8.77,0,0,0,2.85-2.09L13.12,11a5.62,5.62,0,0,1-1.56,1.2,3.67,3.67,0,0,1-1.65.45,2.58,2.58,0,0,1-1.49-.44,2.92,2.92,0,0,1-1-1.22A3.9,3.9,0,0,1,7,9.24a3.89,3.89,0,0,1,.37-1.73A2.92,2.92,0,0,1,8.42,6.31Z"/><path class="cls-1" d="M28.74,10a5.77,5.77,0,0,0,.58-2.67,4.59,4.59,0,0,0-1.57-3.73A6.73,6.73,0,0,0,23.3,2.3H16.48V16.41h4.67V12.75H22.9l1.69,3.66h5.27l-2.78-4.59A4.3,4.3,0,0,0,28.74,10ZM24.48,8.75a1.53,1.53,0,0,1-1.18.45H21.15V5.84H23.3a1.59,1.59,0,0,1,1.18.43,1.73,1.73,0,0,1,.41,1.22A1.82,1.82,0,0,1,24.48,8.75Z"/><path class="cls-1" d="M38.74,10.55a2.46,2.46,0,0,1-.54,1.66,1.75,1.75,0,0,1-1.37.64,1.91,1.91,0,0,1-1.45-.65,2.29,2.29,0,0,1-.61-1.65V2.3H30.1v8.25a6.17,6.17,0,0,0,.84,3.25A5.61,5.61,0,0,0,33.29,16a7.76,7.76,0,0,0,3.52.76A7.5,7.5,0,0,0,40.29,16a5.48,5.48,0,0,0,2.3-2.17,6.25,6.25,0,0,0,.82-3.25V2.3H38.74Z"/><polygon class="cls-1" points="52.91 9.67 49.41 2.3 44.45 2.3 44.45 16.41 48.54 16.41 48.54 8.68 51.38 15.04 54.42 15.04 57.26 8.68 57.26 16.41 61.34 16.41 61.34 2.3 56.39 2.3 52.91 9.67"/><path class="cls-1" d="M66.66,17a4.24,4.24,0,0,1,.74-2.47,4.75,4.75,0,0,1,2.12-1.62,2.64,2.64,0,0,1,.56-.19,5.72,5.72,0,0,0,3.26-1.36,5.19,5.19,0,0,0,1.51-4,4.67,4.67,0,0,0-1.51-3.73A6.29,6.29,0,0,0,69.07,2.3H62.45V21.37l4.22-4.21C66.67,17.09,66.66,17,66.66,17Zm.46-11.13h1.71A1.59,1.59,0,0,1,70,6.27a1.73,1.73,0,0,1,.41,1.22A1.82,1.82,0,0,1,70,8.75a1.53,1.53,0,0,1-1.18.45H67.12Z"/><rect class="cls-2" x="124.02" y="21.5" width="6.6" height="1.75"/><path class="cls-2" d="M87.06,19.13a1.82,1.82,0,0,0,.41-1.26,1.7,1.7,0,0,0-.41-1.21,1.56,1.56,0,0,0-1.18-.44H84.17v3.37h1.71A1.54,1.54,0,0,0,87.06,19.13Z"/><rect class="cls-2" x="124.02" y="16.22" width="6.6" height="1.73"/><polygon class="cls-2" points="95.38 24.8 94.66 26.79 101.38 26.79 100.67 24.8 95.38 24.8"/><polygon class="cls-2" points="98.08 17.33 96.59 21.46 99.53 21.46 98.08 17.33"/><path class="cls-2" d="M115.7,12.93l.43.16A7.84,7.84,0,0,1,118.85,15l-2.7,3.2a4.88,4.88,0,0,0-1.5-1.4,3.23,3.23,0,0,0-1.7-.54,2.72,2.72,0,0,0-1.5.44,2.94,2.94,0,0,0-1,1.19,3.9,3.9,0,0,0-.37,1.74,4,4,0,0,0,.37,1.74,3,3,0,0,0,1,1.22A2.72,2.72,0,0,0,113,23a3.5,3.5,0,0,0,1.64-.46,5.48,5.48,0,0,0,1.56-1.19l2.7,2.88A8.89,8.89,0,0,1,116,26.34a8.48,8.48,0,0,1-1.21.45h4.56V12.93Z"/><path class="cls-2" d="M106.21,23.5a7.6,7.6,0,0,1-1-3.81,7.21,7.21,0,0,1,1-3.76,7,7,0,0,1,2.73-2.6,5.49,5.49,0,0,1,.89-.4h-9.14l5.64,13.86h4.08a7.2,7.2,0,0,1-1.55-.63A6.9,6.9,0,0,1,106.21,23.5Z"/><path class="cls-2" d="M88.17,12.93A5.18,5.18,0,0,1,90.39,14a4.67,4.67,0,0,1,1.51,3.73,5.19,5.19,0,0,1-1.51,4,6,6,0,0,1-4.27,1.42h-2v3.66h5.7l5.85-13.86Z"/><path class="cls-2" d="M76.4,12.93A10.44,10.44,0,0,1,78.83,14l-1.69,3.56a15,15,0,0,0-2.55-1.16,7.15,7.15,0,0,0-2.3-.51c-.57,0-.86.21-.86.63a.8.8,0,0,0,.55.74,10.5,10.5,0,0,0,1.76.58,23.33,23.33,0,0,1,2.51.85A4.54,4.54,0,0,1,78,20a3.66,3.66,0,0,1,.74,2.4A4.1,4.1,0,0,1,77.94,25a4.7,4.7,0,0,1-2.14,1.54,7.36,7.36,0,0,1-.8.24h4.5V12.93Z"/><path class="cls-2" d="M70.38,26.79A11.83,11.83,0,0,1,69,26.44a10.85,10.85,0,0,1-3.29-1.68l1.73-3.52a9.83,9.83,0,0,0,2.68,1.58,7.56,7.56,0,0,0,2.7.65,1.49,1.49,0,0,0,.82-.19.66.66,0,0,0,.3-.59.83.83,0,0,0-.57-.76,10.17,10.17,0,0,0-1.8-.57,19.38,19.38,0,0,1-2.49-.8,4.44,4.44,0,0,1-1.72-1.28,3.37,3.37,0,0,1-.71-2.12l-4.22,4.21v5.42Z"/></svg>